<svg xmlns="http://www.w3.org/2000/svg" viewBox="0 0 512 512">
  <!-- 背景盾牌 -->
  <path d="M466.5 83.7l-192-80a48.15 48.15 0 0 0-36.9 0l-192 80C27.7 91.1 16 108.6 16 128c0 198.5 114.5 335.7 221.5 380.3 11.8 4.9 25.1 4.9 36.9 0C360.1 472.6 496 349.3 496 128c0-19.4-11.7-36.9-29.5-44.3z" fill="#3b82f6"/>
  <!-- 证书图案 -->
  <path d="M384 192H128v224h256V192z" fill="#ffffff" opacity="0.9"/>
  <!-- 证书装饰 -->
  <path d="M160 224h192M160 256h192M160 288h192M160 320h192M160 352h192" stroke="#3b82f6" stroke-width="2"/>
  <!-- 证书印章 -->
  <circle cx="256" cy="288" r="64" fill="none" stroke="#ef4444" stroke-width="4" stroke-dasharray="10 5"/>
  <!-- 检查标记 -->
  <path d="M232 288l16 16 32-32" stroke="#ef4444" stroke-width="4" stroke-linecap="round" stroke-linejoin="round"/>
  <!-- 证书标签 -->
  <path d="M256 360c-11 0-20 9-20 20s9 20 20 20 20-9 20-20-9-20-20-20z" fill="#3b82f6"/>
</svg>